<?xml version="1.0" encoding="UTF-8"?> <!-- Generator: Adobe Illustrator 23.0.1, SVG Export Plug-In . SVG Version: 6.00 Build 0) --> <svg xmlns="http://www.w3.org/2000/svg" xmlns:xlink="http://www.w3.org/1999/xlink" id="Ebene_1" x="0px" y="0px" viewBox="0 0 126.32067 28.48623" style="enable-background:new 0 0 126.32067 28.48623;" xml:space="preserve"> <style type="text/css"> .st0{fill:#397DA5;} .st1{fill:#FFFFFF;} .st2{fill:#3783AE;} .st3{fill:none;stroke:#008F4A;stroke-width:0.5;stroke-miterlimit:10;} </style> <g> <circle class="st0" cx="14.0549" cy="14.39012" r="13.816"></circle> <path class="st1" d="M14.4719,23.30412c-2.381,0-4.619-0.927-6.30299-2.61099c-1.68401-1.68399-2.61099-3.922-2.61099-6.30301 s0.927-4.61899,2.61099-6.30301c1.68401-1.68399,3.922-2.61099,6.30299-2.61099c2.97999,0,5.75101,1.48099,7.412,3.961 c0.069,0.103,0.061,0.23801-0.01801,0.332c0,0-1.47301,1.75-1.476,1.754l0,0l0,0c-0.08099,0.08099-0.14,0.08899-0.20599,0.08899 l-2.658,0.00101c-0.07401,0-0.144-0.02899-0.196-0.08099c-0.763-0.763-1.778-1.18399-2.858-1.18399 c-2.228,0-4.041,1.81299-4.041,4.04099s1.813,4.04099,4.041,4.04099c1.07899,0,2.09399-0.42001,2.858-1.18399 c0.052-0.052,0.12199-0.08099,0.196-0.08099h2.661c0.093,0,0.174,0.04501,0.22501,0.11499l1.45399,1.729 c0.07901,0.09399,0.08701,0.23001,0.01801,0.332C20.2229,21.82314,17.45189,23.30412,14.4719,23.30412z M6.31189,16.22115 c0.341,1.534,1.11099,2.94199,2.24899,4.07999c1.57899,1.57901,3.67799,2.448,5.911,2.448c2.726,0,5.265-1.32101,6.83401-3.54401 l-1.077-1.28101c-0.27699,0.45001-0.605,0.866-0.98,1.241c-0.002,0.00201-0.005,0.005-0.007,0.00699 c-1.479,1.47501-3.44299,2.28799-5.532,2.28799c-2.092,0-4.06-0.815-5.539-2.29401 C7.3239,18.32112,6.6959,17.31713,6.31189,16.22115z M8.5629,8.47713c-0.00101,0.00101-0.002,0.00201-0.002,0.00201 c-1.375,1.375-2.132,3.203-2.132,5.14801c0,4.01401,3.26601,7.28,7.28,7.28c1.944,0,3.772-0.75699,5.147-2.133 c0.002-0.00201,0.005-0.004,0.007-0.00699c0.31799-0.319,0.599-0.67001,0.84-1.047h-2.064 c-0.858,0.81699-1.978,1.26501-3.166,1.26501c-0.03799,0-0.076,0-0.114-0.00101c-0.00101,0-0.002,0-0.00301,0 c-1.491-0.03-2.888-0.634-3.93401-1.69901c-1.047-1.06699-1.62399-2.478-1.62399-3.974c0-1.48999,0.573-2.89801,1.614-3.96399 c1.039-1.064,2.429-1.67099,3.914-1.70902c0.097-0.00201,0.196-0.00201,0.293,0c2.298,0.04901,4.412,1.271,5.61,3.21701l1.077-1.28 c-1.569-2.22299-4.108-3.54401-6.834-3.54401C12.2399,6.03114,10.14189,6.90013,8.5629,8.47713z M14.4719,8.19014 c-0.04401,0-0.088,0.00101-0.132,0.00201c-1.34,0.034-2.59399,0.582-3.532,1.54199c-0.939,0.96201-1.457,2.23199-1.457,3.577 c0,1.05399,0.317,2.061,0.90601,2.91c-0.245-0.561-0.381-1.181-0.381-1.83099c0-2.534,2.061-4.595,4.595-4.595 c1.189,0,2.308,0.448,3.166,1.26501h2.064c-1.108-1.737-3.021-2.82401-5.097-2.86801 C14.55989,8.19014,14.5159,8.19014,14.4719,8.19014z"></path> <g> <g> <path class="st2" d="M73.02388,18.75215c-0.328,0.51599-0.75,0.914-1.26599,1.19299s-1.12299,0.41901-1.82101,0.41901 c-1.17801,0-2.099-0.44-2.76401-1.32101c-0.66501-0.88-0.99701-2.05499-0.99701-3.52499v-0.19101 c0-1.57199,0.332-2.83099,0.99701-3.77499s1.59201-1.41599,2.78201-1.41599c0.686,0,1.28101,0.14401,1.785,0.43301 c0.504,0.28799,0.923,0.70001,1.25699,1.23401v-4.909l-1.48401-0.11801v-0.811h1.48401h1.09299v13.28799l1.48401,0.11801v0.802 h-2.45901L73.02388,18.75215z M67.2769,15.51915c0,1.19,0.23801,2.13699,0.715,2.84201 c0.47699,0.70401,1.194,1.056,2.15399,1.056c0.698,0,1.28299-0.15799,1.75299-0.47299c0.47-0.31601,0.836-0.75,1.09698-1.30301 v-4.66299c-0.24301-0.55899-0.59399-1.01401-1.052-1.366c-0.45901-0.35199-1.052-0.52802-1.78-0.52802 c-0.95999,0-1.681,0.39301-2.16299,1.17999c-0.483,0.78601-0.724,1.80801-0.724,3.065v0.19H67.2769z"></path> <path class="st2" d="M76.51588,15.10015c0-1.45099,0.397-2.64099,1.19299-3.57001c0.79501-0.92899,1.849-1.39301,3.16-1.39301 c1.31699,0,2.37399,0.465,3.16901,1.39301c0.79599,0.92899,1.19299,2.11899,1.19299,3.57001v0.30099 c0,1.457-0.396,2.64899-1.189,3.57501c-0.79199,0.92599-1.84399,1.38901-3.15601,1.38901 c-1.32401,0-2.383-0.46301-3.17801-1.38901c-0.79599-0.92599-1.19299-2.117-1.19299-3.57501v-0.30099H76.51588z M77.60789,15.40013c0,1.14099,0.28799,2.10101,0.866,2.87799c0.577,0.77701,1.38101,1.16599,2.41299,1.16599 c1.01401,0,1.80899-0.38901,2.38599-1.16599c0.577-0.77701,0.86499-1.737,0.86499-2.87799v-0.30099 c0-1.12299-0.29001-2.077-0.87-2.85999s-1.38-1.17499-2.39999-1.17499s-1.819,0.39099-2.39499,1.17499 c-0.577,0.78299-0.866,1.737-0.866,2.85999v0.30099H77.60789z"></path> <path class="st2" d="M94.08791,13.36012h-0.892l-0.12799-1.39301c-0.27301-0.285-0.61801-0.50699-1.034-0.66501 c-0.41599-0.15799-0.89401-0.237-1.435-0.237c-0.79501,0-1.392,0.17099-1.789,0.51401 c-0.39801,0.34299-0.59698,0.745-0.59698,1.207c0,0.45499,0.17099,0.832,0.51501,1.129 c0.34299,0.297,1.02701,0.55899,2.05399,0.78299c1.172,0.26099,2.04901,0.61801,2.63199,1.07001 c0.58301,0.453,0.87399,1.06699,0.87399,1.84399c0,0.82001-0.332,1.483-0.99701,1.98999s-1.54401,0.76001-2.63699,0.76001 c-0.728,0-1.392-0.10199-1.98999-0.30499s-1.116-0.48999-1.55301-0.86099v-1.98499h0.883l0.155,1.40302 c0.29099,0.29099,0.66,0.50201,1.10599,0.633c0.44601,0.13101,0.91199,0.19601,1.39801,0.19601 c0.789,0,1.41199-0.173,1.867-0.51901c0.45499-0.34601,0.68301-0.76501,0.68301-1.25699c0-0.461-0.19-0.86499-0.569-1.211 s-1.064-0.62799-2.05399-0.84698c-1.172-0.255-2.04199-0.59299-2.60901-1.01599c-0.56799-0.422-0.85199-1.01199-0.85199-1.771 c0-0.75299,0.319-1.38901,0.95599-1.90799c0.638-0.51901,1.478-0.77899,2.52301-0.77899c0.72299,0,1.383,0.11099,1.98099,0.332 c0.59799,0.22198,1.08499,0.521,1.461,0.897L94.08791,13.36012z"></path> <path class="st2" d="M103.23689,13.36012h-0.892l-0.12799-1.39301c-0.27301-0.285-0.61801-0.50699-1.034-0.66501 c-0.41599-0.15799-0.89401-0.237-1.435-0.237c-0.79501,0-1.392,0.17099-1.789,0.51401 c-0.39801,0.34299-0.59698,0.745-0.59698,1.207c0,0.45499,0.17099,0.832,0.51501,1.129 c0.34299,0.297,1.02701,0.55899,2.05399,0.78299c1.172,0.26099,2.04901,0.61801,2.63199,1.07001 c0.58301,0.453,0.87399,1.06699,0.87399,1.84399c0,0.82001-0.332,1.483-0.99701,1.98999s-1.54401,0.76001-2.63699,0.76001 c-0.728,0-1.392-0.10199-1.98999-0.30499s-1.116-0.48999-1.55301-0.86099v-1.98499h0.883l0.155,1.40302 c0.29099,0.29099,0.66,0.50201,1.10599,0.633c0.44601,0.13101,0.91199,0.19601,1.39801,0.19601 c0.789,0,1.41199-0.173,1.867-0.51901c0.45499-0.34601,0.68301-0.76501,0.68301-1.25699c0-0.461-0.19-0.86499-0.569-1.211 s-1.064-0.62799-2.05399-0.84698c-1.172-0.255-2.04199-0.59299-2.60901-1.01599c-0.56799-0.422-0.85199-1.01199-0.85199-1.771 c0-0.75299,0.319-1.38901,0.95599-1.90799c0.638-0.51901,1.478-0.77899,2.52301-0.77899c0.72299,0,1.383,0.11099,1.98099,0.332 c0.59799,0.22198,1.08499,0.521,1.461,0.897L103.23689,13.36012z"></path> <path class="st2" d="M105.16289,19.37114l1.48499-0.11801v-8.005l-1.48499-0.11801v-0.81h2.569v8.93399l1.48401,0.11801v0.802 h-4.05301V19.37114z"></path> <path class="st2" d="M114.5789,20.36415c-1.23901,0-2.26501-0.45401-3.078-1.362c-0.814-0.90799-1.22-2.06299-1.22-3.465 v-0.50101c0-1.409,0.405-2.577,1.216-3.50699c0.811-0.92899,1.79001-1.39301,2.93701-1.39301 c1.20801,0,2.159,0.383,2.85101,1.147c0.69199,0.76501,1.039,1.785,1.039,3.06v0.92899h-6.95901v0.26401 c0,1.10501,0.29599,2.03201,0.888,2.78201s1.36801,1.125,2.327,1.125c0.67401,0,1.25101-0.09399,1.73099-0.28299 c0.48001-0.18799,0.89001-0.45801,1.229-0.81l0.46399,0.74701c-0.37,0.38901-0.83701,0.69699-1.40201,0.92401 C116.0359,20.25014,115.36189,20.36415,114.5789,20.36415z M114.43291,11.06514c-0.80099,0-1.47699,0.30801-2.026,0.92401 s-0.87,1.38901-0.961,2.31799l0.01801,0.04599h5.77499v-0.27301c0-0.85599-0.25201-1.57199-0.75601-2.14899 C115.97789,11.35414,115.29491,11.06514,114.43291,11.06514z"></path> <path class="st2" d="M122.0789,10.31914l0.13599,1.63901v0.11801c0.27899-0.60699,0.66101-1.082,1.14301-1.42499 s1.05499-0.51501,1.71701-0.51501c0.13901,0,0.27399,0.01099,0.405,0.03201c0.13101,0.022,0.23801,0.04401,0.32401,0.069 l-0.146,1.01999l-0.811-0.05499c-0.686,0-1.24899,0.19299-1.689,0.578c-0.44,0.38599-0.755,0.91501-0.94299,1.58899v5.883 l1.48401,0.11801v0.802h-4.05301v-0.802l1.48401-0.11801v-8.005l-1.48401-0.11801v-0.81h1.48401H122.0789z"></path> </g> <path class="st2" d="M39.0829,19.66213c-0.849-0.44-1.51199-1.04999-1.98901-1.83099 c-0.47699-0.78101-0.716-1.66699-0.716-2.65799s0.23901-1.87799,0.716-2.65799s1.14001-1.39099,1.98901-1.83099 s1.806-0.66,2.87201-0.66c1.05301,0,1.97299,0.22,2.76001,0.66c0.78699,0.44,1.35999,1.069,1.72,1.88699l-2.24899,1.20801 c-0.51999-0.91699-1.26999-1.375-2.24899-1.375c-0.75601,0-1.38199,0.24799-1.87799,0.74301 c-0.496,0.496-0.74399,1.17099-0.74399,2.026s0.24799,1.53101,0.74399,2.026c0.496,0.496,1.12201,0.74399,1.87799,0.74399 c0.991,0,1.741-0.45801,2.24899-1.37601l2.24899,1.22699c-0.35999,0.793-0.93301,1.41299-1.72,1.85901 s-1.707,0.66901-2.76001,0.66901C40.8889,20.32213,39.9319,20.10213,39.0829,19.66213z"></path> <path class="st2" d="M55.55089,11.12914c0.82999,0.73801,1.245,1.85001,1.245,3.33701v5.707H54.0819v-1.245 c-0.54501,0.92999-1.56201,1.39401-3.04901,1.39401c-0.76901,0-1.435-0.13-1.99799-0.39099 c-0.564-0.26001-0.995-0.61899-1.29199-1.078c-0.297-0.45801-0.44601-0.979-0.44601-1.561 c0-0.92999,0.35001-1.66101,1.04999-2.194c0.70001-0.53299,1.78101-0.79901,3.24399-0.79901h2.30499 c0-0.63199-0.19199-1.11801-0.57599-1.45999c-0.384-0.34-0.961-0.51099-1.729-0.51099c-0.53299,0-1.05701,0.08401-1.57101,0.25101 s-0.95099,0.39301-1.31,0.67801l-1.04099-2.026c0.54501-0.384,1.19901-0.68201,1.961-0.892 c0.76199-0.211,1.54599-0.31601,2.35101-0.31601C53.5309,10.02315,54.72091,10.39214,55.55089,11.12914z M53.07891,18.02614 c0.384-0.229,0.65701-0.56699,0.81799-1.013v-1.022h-1.98901c-1.19,0-1.785,0.39001-1.785,1.17099 c0,0.37201,0.146,0.66599,0.43701,0.883c0.29099,0.21701,0.69101,0.32501,1.19901,0.32501 C52.2549,18.37013,52.6939,18.25615,53.07891,18.02614z"></path> <path class="st2" d="M62.82091,10.39513c0.58801-0.24799,1.26699-0.37201,2.035-0.37201v2.677 c-0.323-0.02499-0.539-0.03699-0.651-0.03699c-0.82998,0-1.48098,0.23199-1.95199,0.69699s-0.70599,1.16199-0.70599,2.091v4.72101 h-2.89999V10.17113h2.76999v1.32001C61.7639,11.00914,62.23189,10.64314,62.82091,10.39513z"></path> </g> <path class="st3" d="M107.65788,14.26015"></path> <path class="st3" d="M107.65788,11.54314"></path> </g> </svg> 